<svg width="70" height="34" viewBox="0 0 70 34" fill="none" xmlns="http://www.w3.org/2000/svg">
<g clip-path="url(#clip0_1408_9534)">
<path d="M15.2334 16.98C15.2334 21.3491 12.3694 24.8864 7.64586 24.8864C2.92241 24.8864 0.0878906 21.3491 0.0878906 16.98C0.0878906 12.6109 2.98137 9.07351 7.61638 9.07351C12.2515 9.07351 15.2334 12.6428 15.2334 16.98ZM3.69 16.98C3.69 19.2874 5.01882 21.4412 7.64586 21.4412C10.2729 21.4412 11.6017 19.2874 11.6017 16.98C11.6017 14.6726 10.0666 12.488 7.64586 12.488C5.0483 12.488 3.69 14.7033 3.69 16.98Z" fill="white"/>
<path d="M17.714 30.8914V9.38622H21.0802L21.3161 11.4786C22.4374 9.7867 24.3864 9.04827 26.0396 9.04827C30.5272 9.04827 33.5091 12.5242 33.5091 16.9855C33.5091 21.4467 30.822 24.9227 26.1575 24.9227C24.6223 24.9227 22.349 24.43 21.315 22.7688V30.8903H17.7129L17.714 30.8914ZM29.907 16.9855C29.907 14.6166 28.3718 12.6778 25.7731 12.6778C23.1744 12.6778 21.6393 14.6155 21.6393 16.9855C21.6393 19.3554 23.3218 21.2919 25.7731 21.2919C28.2244 21.2919 29.907 19.3544 29.907 16.9855Z" fill="white"/>
<path d="M45.6744 13.4137C44.6414 12.3988 43.46 12.0598 42.0722 12.0598C40.3601 12.0598 39.4146 12.6139 39.4146 13.5674C39.4146 14.5208 40.2706 15.1056 42.1312 15.2285C44.8772 15.4128 48.3603 16.0591 48.3603 20.0891C48.3603 22.7652 46.264 25.0738 42.1006 25.0738C39.7979 25.0738 37.4951 24.6733 35.3691 22.3658L37.1402 19.6898C38.1731 20.889 40.5359 21.7821 42.1595 21.8128C43.5179 21.8436 44.7866 21.1052 44.7866 19.9981C44.7866 18.9525 43.9601 18.5212 41.8931 18.3984C39.1471 18.1833 35.8703 17.1366 35.8703 13.6914C35.8703 10.2461 39.3545 8.95364 42.0111 8.95364C44.2844 8.95364 45.9964 9.41442 47.6801 10.9527L45.6721 13.4137H45.6744Z" fill="white"/>
<path d="M60.5048 33.1145C55.3195 33.1145 51.1016 28.7192 51.1016 23.3159V10.608C51.1016 5.20466 55.3195 0.809401 60.5048 0.809401C65.6902 0.809401 69.9078 5.20466 69.9078 10.608V23.3159C69.9078 28.7192 65.6902 33.1145 60.5048 33.1145ZM60.5048 4.09646C57.0589 4.09646 54.256 7.01715 54.256 10.608V23.3159C54.256 26.9068 57.0589 29.8274 60.5048 29.8274C63.9508 29.8274 66.7537 26.9068 66.7537 23.3159V10.608C66.7537 7.01715 63.9508 4.09646 60.5048 4.09646Z" fill="url(#paint0_linear_1408_9534)"/>
<path d="M61.0255 0.825178V4.12134C64.2301 4.39668 66.7567 7.20018 66.7567 10.609V16.2968H69.9113V10.609C69.9113 5.38655 65.9705 1.10621 61.0255 0.825178Z" fill="url(#paint1_linear_1408_9534)"/>
<path d="M59.9873 33.1164V29.8202C56.7826 29.5448 54.256 26.7413 54.256 23.3325V17.6447H51.1016V23.3325C51.1016 28.555 55.0422 32.8353 59.9873 33.1164Z" fill="url(#paint2_linear_1408_9534)"/>
<path d="M60.5048 26.846C55.3195 26.846 51.1016 22.4508 51.1016 17.0475C51.1016 11.6441 55.3195 7.24886 60.5048 7.24886C65.6902 7.24886 69.9078 11.6441 69.9078 17.0475C69.9078 22.4508 65.6902 26.846 60.5048 26.846ZM60.5048 10.5507C57.0665 10.5507 54.2702 13.4646 54.2702 17.0475C54.2702 20.6303 57.0665 23.5442 60.5048 23.5442C63.9432 23.5442 66.7395 20.6292 66.7395 17.0475C66.7395 13.4657 63.9432 10.5507 60.5048 10.5507Z" fill="url(#paint3_linear_1408_9534)"/>
</g>
<defs>
<linearGradient id="paint0_linear_1408_9534" x1="42.9419" y1="41.9585" x2="72.1068" y2="3.73074" gradientUnits="userSpaceOnUse">
<stop offset="0.04" stop-color="#5855A4"/>
<stop offset="1" stop-color="#7ED0E6"/>
</linearGradient>
<linearGradient id="paint1_linear_1408_9534" x1="64.0543" y1="2.38281" x2="68.9535" y2="15.5684" gradientUnits="userSpaceOnUse">
<stop stop-opacity="0"/>
<stop offset="1"/>
</linearGradient>
<linearGradient id="paint2_linear_1408_9534" x1="56.835" y1="31.8898" x2="51.8146" y2="15.3837" gradientUnits="userSpaceOnUse">
<stop stop-opacity="0"/>
<stop offset="1"/>
</linearGradient>
<linearGradient id="paint3_linear_1408_9534" x1="42.9812" y1="41.9876" x2="72.1451" y2="3.76102" gradientUnits="userSpaceOnUse">
<stop offset="0.04" stop-color="#5855A4"/>
<stop offset="1" stop-color="#7ED0E6"/>
</linearGradient>
<clipPath id="clip0_1408_9534">
<rect width="70" height="32.9808" fill="white" transform="translate(0 0.719614)"/>
</clipPath>
</defs>
</svg>
